# xmcd
#
# Track frame offsets:
#	150
#	18353
#	35676
#	49087
#	65327
#	82303
#	101350
#	114720
#	132399
#	148115
#	166318
#	183641
#	197052
#	213292
#	230268
#	249315
#	262685
#	280364
#
# Disc length: 3947
#
# Revision: 1
# Processed by: cddbd v1.5.2PL0 Copyright (c) Steve Scherf et al.
# Submitted via: kJams Pro (development) 1.0patch45.10
#
DISCID=050f6912
DTITLE=Various Artist - NSC 3030
DYEAR=1996
DGENRE=Country
TTITLE0=Alan Jackson - Work In Progress
TTITLE1=Dixie Chicks - Long Time Gone
TTITLE2=Garth Brooks - Thicker Than Blood
TTITLE3=Rascal Flatts - These Days
TTITLE4=Shedaisy - Mine All Mine
TTITLE5=Montgomery Gentry - My Town
TTITLE6=Rodney Atkins - Sing Along
TTITLE7=Rebecca Lynn Howard - Forgive
TTITLE8=Anthony Smith - If That Ain't Country
TTITLE9=Alan Jackson - Vocals - Work In Progress
TTITLE10=Dixie Chicks - Vocals - Long Time Gone
TTITLE11=Garth Brooks - Vocals - Thicker Than Blood
TTITLE12=Rascal Flatts - Vocals - These Days
TTITLE13=Shedaisy - Vocals - Mine All Mine
TTITLE14=Montgomery Gentry - Vocals - My Town
TTITLE15=Rodney Atkins - Vocals - Sing Along
TTITLE16=Rebecca Lynn Howard - Vocals - Forgive
TTITLE17=Anthony Smith - Vocals - If That Ain't Country
EXTD=
EXTT0=
EXTT1=
EXTT2=
EXTT3=
EXTT4=
EXTT5=
EXTT6=
EXTT7=
EXTT8=
EXTT9=
EXTT10=
EXTT11=
EXTT12=
EXTT13=
EXTT14=
EXTT15=
EXTT16=
EXTT17=
PLAYORDER=
